PathFileType	4	(X/Y/Z)	s02c0301.trc
DataRate	CameraRate	NumFrames	NumMarkers	Units	OrigDataRate	OrigDataStartFrame	OrigNumFrames
200	200	5	51	mm	200	0	2000
Frame#	Time	racr			lacr			c7			jug			rlel			rdr			llel			ldr			s2			lic			ric			lasi			rasi			rpsi			lpsi			rgt			lgt			rth1			rth2			rth3			rth4			rlfc			rmfc			rsh1			rsh2			rsh3			rsh4			rlmal			rmmal			rcal			rtoe			rmt5			rmt1			lth1			lth2			lth4			lth3			llfc			lmfc			lsh1			lsh2			lsh3			lsh4			llmal			lmmal			lcal			ltoe			lmt5			SBIKE			LBIKE			RBIKE			
		X1	Y1	Z1	X2	Y2	Z2	X3	Y3	Z3	X4	Y4	Z4	X5	Y5	Z5	X6	Y6	Z6	X7	Y7	Z7	X8	Y8	Z8	X9	Y9	Z9	X10	Y10	Z10	X11	Y11	Z11	X12	Y12	Z12	X13	Y13	Z13	X14	Y14	Z14	X15	Y15	Z15	X16	Y16	Z16	X17	Y17	Z17	X18	Y18	Z18	X19	Y19	Z19	X20	Y20	Z20	X21	Y21	Z21	X22	Y22	Z22	X23	Y23	Z23	X24	Y24	Z24	X25	Y25	Z25	X26	Y26	Z26	X27	Y27	Z27	X28	Y28	Z28	X29	Y29	Z29	X30	Y30	Z30	X31	Y31	Z31	X32	Y32	Z32	X33	Y33	Z33	X34	Y34	Z34	X35	Y35	Z35	X36	Y36	Z36	X37	Y37	Z37	X38	Y38	Z38	X39	Y39	Z39	X40	Y40	Z40	X41	Y41	Z41	X42	Y42	Z42	X43	Y43	Z43	X44	Y44	Z44	X45	Y45	Z45	X46	Y46	Z46	X47	Y47	Z47	X48	Y48	Z48	X49	Y49	Z49	X50	Y50	Z50	X51	Y51	Z51	
0	0.0000	487.390269	1276.196200	-126.564344	505.488150	1280.147804	-480.736255	519.130446	1314.344454	-306.178790	461.220290	1190.599646	-302.819064	603.337048	1030.817107	-123.553303	725.760005	838.046900	-143.222648	583.951136	1020.155821	-530.093808	718.589700	831.529167	-485.331802	3.463378	1104.518889	-319.866758	149.929069	1100.857638	-457.326083	137.362715	1103.747878	-179.515389	187.399203	1053.197985	-439.630688	192.802579	1078.754417	-203.558118	31.736460	1146.977866	-276.607149	42.484933	1162.577593	-360.930693	108.095042	1033.752875	-134.725691	82.340268	1009.180757	-497.046459	190.073417	1009.463097	-132.011295	277.418048	1000.780300	-139.404141	349.754488	961.157740	-114.526083	286.665781	1023.720331	-168.076640	473.845328	877.742664	-143.491165	470.294520	858.985526	-256.517418	462.318563	764.655742	-130.291373	449.199322	679.919574	-151.291313	399.784294	607.566588	-146.160694	460.781049	677.417562	-188.076277	345.385954	505.066569	-153.462132	352.163725	524.104955	-233.150384	266.728933	462.161524	-194.874431	549.968162	427.013215	-195.165715	441.315965	420.511704	-135.861826	467.484056	431.903235	-243.419345	184.069810	904.923044	-514.054212	250.783046	850.215280	-512.739672	278.022914	869.110653	-496.334152	280.417476	765.703920	-513.296975	333.220085	679.227551	-490.239788	335.208860	651.044258	-387.868840	284.589108	587.065046	-509.439135	251.911554	510.280304	-490.661920	179.831141	453.793702	-494.786209	266.916959	501.590827	-454.828724	103.599909	383.563094	-479.191476	117.653777	374.469261	-402.114472	23.097619	372.177274	-441.423849	255.212288	204.278853	-439.020830	155.485820	241.377450	-502.068991	-129.306978	870.297875	-314.748501	33.240395	81.988101	-515.625075	33.501929	81.500715	-115.140331	
1	0.0050	487.452594	1276.233496	-126.543066	505.596358	1280.178036	-480.713153	519.216012	1314.318326	-306.165401	461.381164	1190.579917	-302.799835	603.383447	1030.843600	-123.469398	725.791804	838.054343	-143.195161	583.998370	1020.142141	-530.066943	718.630103	831.520499	-485.345786	3.408217	1104.635035	-319.846260	149.910672	1100.922437	-457.258826	137.421429	1103.789334	-179.548639	187.314732	1053.214555	-439.606464	192.831760	1078.769319	-203.626551	31.768001	1147.085900	-276.579077	42.469316	1162.742495	-360.932490	108.069228	1033.795797	-134.717095	82.223275	1009.293835	-497.034880	190.063950	1009.480241	-132.019068	277.413415	1000.772250	-139.403389	349.715105	961.144693	-114.503516	286.642776	1023.752497	-168.055630	473.752402	877.698452	-143.556336	470.216271	859.013721	-256.545555	462.234876	764.668797	-130.326883	449.089346	679.967708	-151.328638	399.668910	607.537023	-146.170416	460.651427	677.461921	-188.112647	345.206922	505.102930	-153.491814	351.930900	524.152552	-233.144621	266.606558	462.209129	-194.892093	549.831884	427.218476	-195.179709	441.187333	420.630467	-135.845707	467.366819	432.097568	-243.419723	184.070641	905.106289	-513.975713	250.839337	850.472957	-512.595173	278.047506	869.384596	-496.088800	280.561054	765.957301	-513.155103	333.335917	679.505341	-490.147175	335.110551	651.299867	-387.799987	284.756309	587.287067	-509.400170	252.198083	510.490921	-490.677596	180.200251	453.899928	-494.825078	267.210416	501.841294	-454.806753	104.112582	383.511076	-479.238467	118.119756	374.421254	-402.153089	23.621244	372.383339	-441.453975	255.275100	203.798820	-438.957201	155.698009	241.207100	-502.077827	-129.294791	870.298121	-314.748275	33.234272	82.003907	-515.612280	33.502155	81.500910	-115.129477	
2	0.0100	487.537420	1276.256796	-126.544837	505.717967	1280.216387	-480.669061	519.283895	1314.295878	-306.150026	461.503795	1190.584717	-302.767574	603.453888	1030.861117	-123.392883	725.774449	838.039308	-143.176701	584.071784	1020.152442	-530.047601	718.655320	831.475343	-485.309874	3.346138	1104.762511	-319.800684	149.858663	1100.996959	-457.196454	137.461269	1103.831978	-179.543933	187.186104	1053.241718	-439.627019	192.856089	1078.780164	-203.712165	31.787805	1147.225714	-276.518462	42.458062	1162.953179	-360.891787	108.027192	1033.862823	-134.674332	82.087378	1009.485162	-497.016159	190.002665	1009.544439	-132.020333	277.355297	1000.845168	-139.391657	349.658984	961.213263	-114.514334	286.569260	1023.861286	-168.066799	473.718418	877.759697	-144.248704	470.116246	859.108823	-256.600226	462.125297	764.804511	-130.364857	448.993533	680.071901	-151.348878	399.521085	607.659208	-146.178176	460.519234	677.540538	-188.119217	345.096284	505.190865	-153.514588	351.789304	524.271018	-233.151900	266.520092	462.339909	-194.915030	549.719762	427.440016	-195.181744	441.064698	420.809208	-135.831785	467.265485	432.241767	-243.412371	184.077697	905.370735	-513.908327	250.931212	850.883438	-512.439939	278.047011	869.810136	-495.831126	280.777383	766.456266	-513.015786	333.497726	679.884342	-490.101605	335.152589	651.598376	-387.731959	285.012964	587.661978	-509.382506	252.561989	510.775674	-490.695707	180.620462	454.088959	-494.901018	267.564392	502.141110	-454.822924	104.710800	383.496845	-479.347343	118.682298	374.393173	-402.226673	24.247433	372.634573	-441.546383	255.371851	203.287333	-438.951615	155.937439	241.019297	-502.067128	-129.294228	870.308754	-314.739858	33.246429	82.005101	-515.622287	33.503981	81.494227	-115.142406	
3	0.0150	487.934187	1275.938969	-126.706735	505.646672	1280.765311	-480.143360	519.374456	1314.275476	-306.124035	461.644092	1190.561896	-302.725155	603.112664	1031.052734	-122.812437	725.791637	838.021890	-143.172366	584.157509	1020.175723	-530.009804	718.580533	832.314327	-486.395487	3.076095	1105.227973	-319.368538	150.868770	1100.332884	-458.561060	137.493125	1103.859392	-179.549842	187.039428	1053.281366	-439.643771	192.852250	1078.816015	-203.785984	31.788224	1147.387012	-276.444040	42.552345	1163.290576	-360.878430	108.654228	1033.088087	-135.740326	81.957367	1009.715202	-497.016234	190.179949	1009.542688	-131.969407	277.275375	1000.967905	-139.413086	349.515930	961.265237	-114.865213	286.548936	1023.982526	-168.091931	473.666278	877.893066	-144.289684	470.009889	859.269943	-256.643397	462.099951	764.834551	-130.356648	445.901438	677.582280	-151.967503	399.572991	607.695216	-146.241090	459.562339	677.219797	-188.411410	344.396691	506.228033	-153.003712	352.825545	524.337371	-235.223611	266.447946	462.489463	-194.937282	549.637995	427.601798	-195.194709	440.401171	421.818065	-135.079880	467.166796	432.382476	-243.392330	184.067785	905.790001	-513.837054	251.146247	851.051685	-512.136959	278.078242	870.247807	-495.561266	281.022149	766.970118	-512.911766	333.879360	680.142642	-490.213031	335.273729	651.963870	-387.688505	285.300123	588.093361	-509.391061	252.153568	510.147512	-491.521971	181.066079	454.434066	-495.062848	267.580598	502.843135	-454.277092	105.400529	383.483564	-479.435001	119.340447	374.357957	-402.330798	24.976117	372.885325	-441.606763	255.469213	202.737036	-438.990344	156.181643	240.808302	-502.066735	-129.288114	870.288739	-314.760124	33.241667	81.990721	-515.605515	33.499413	81.489528	-115.124920	
4	0.0200	487.701088	1276.314750	-126.158748	505.673761	1280.753201	-479.937576	519.184203	1314.445892	-305.622679	461.770875	1190.532155	-302.706178	603.226677	1031.165756	-122.730737	725.877822	838.066673	-142.937801	584.155117	1020.460396	-529.689380	718.005568	833.333996	-488.744531	3.031140	1105.458566	-319.201358	150.552904	1100.574034	-458.095104	137.406707	1104.472928	-179.200888	186.883933	1053.316779	-439.545011	192.771151	1078.839627	-203.877399	31.817563	1147.610625	-276.362820	42.466342	1163.505019	-360.743279	108.147139	1033.723596	-135.113094	81.809834	1010.055707	-496.864432	189.618036	1010.173706	-131.561914	276.867091	1001.638575	-138.938279	349.211904	961.960717	-114.254977	286.463670	1024.322047	-168.212147	473.528835	878.239726	-144.277990	469.655181	859.949580	-256.266661	461.556689	765.518404	-129.854225	445.371545	678.329934	-151.782777	398.966515	608.468533	-145.830506	460.496703	677.775986	-188.149956	344.434978	506.298112	-152.978128	352.542185	525.360621	-234.632945	266.412853	462.698283	-194.963006	549.318457	427.968309	-194.937876	440.358774	421.970143	-135.054516	466.989507	432.900995	-243.205172	183.935139	906.559224	-513.378392	251.319853	851.735613	-511.904153	278.157655	870.898219	-495.204093	281.302793	767.684047	-512.772584	333.774519	681.048600	-489.863734	335.107235	653.005091	-387.289553	285.479778	588.763362	-509.138532	252.246959	510.944545	-491.079715	181.776755	454.674002	-495.020335	268.004435	503.292556	-454.062785	106.044252	383.594284	-479.490318	119.962474	374.493981	-402.326570	25.714644	373.201574	-441.638537	255.447580	202.091853	-438.718692	156.378750	240.648669	-502.052276	-129.315689	870.317049	-314.775206	33.254027	82.032819	-515.569126	33.087775	81.988857	-115.106661	
